<mxfile host="app.diagrams.net" agent="Mozilla/5.0 (Windows NT 10.0; Win64; x64) AppleWebKit/537.36 (KHTML, like Gecko) Chrome/131.0.0.0 Safari/537.36" version="26.2.14" pages="2">
  <diagram name="Сторінка-1" id="Im_iXDUGo6y2KkLEt8zE">
    <mxGraphModel dx="1042" dy="527" grid="1" gridSize="10" guides="1" tooltips="1" connect="1" arrows="1" fold="1" page="1" pageScale="1" pageWidth="827" pageHeight="1169" math="0" shadow="0">
      <root>
        <mxCell id="0" />
        <mxCell id="1" parent="0" />
        <mxCell id="8HCiJjrAsonZYJBvm4n6-1" value="Клієнт" style="shape=umlActor;verticalLabelPosition=bottom;html=1;fillColor=light-dark(#FFCDD2,#550818);" vertex="1" parent="1">
          <mxGeometry x="134" y="90" width="30" height="60" as="geometry" />
        </mxCell>
        <mxCell id="8HCiJjrAsonZYJBvm4n6-2" value="Перегляд каталогу послуг" style="shape=ellipse;whiteSpace=wrap;html=1;fillColor=light-dark(#FFCDD2,#550818);" vertex="1" parent="1">
          <mxGeometry x="18" y="140" width="100" height="60" as="geometry" />
        </mxCell>
        <mxCell id="8HCiJjrAsonZYJBvm4n6-3" style="endArrow=none;fillColor=light-dark(#FFCDD2,#550818);" edge="1" parent="1" source="8HCiJjrAsonZYJBvm4n6-1" target="8HCiJjrAsonZYJBvm4n6-2">
          <mxGeometry relative="1" as="geometry" />
        </mxCell>
        <mxCell id="8HCiJjrAsonZYJBvm4n6-4" value="Запис на послугу" style="shape=ellipse;whiteSpace=wrap;html=1;fillColor=light-dark(#FFCDD2,#550818);" vertex="1" parent="1">
          <mxGeometry x="189" y="140" width="106" height="60" as="geometry" />
        </mxCell>
        <mxCell id="8HCiJjrAsonZYJBvm4n6-5" style="endArrow=none;fillColor=light-dark(#FFCDD2,#550818);" edge="1" parent="1" source="8HCiJjrAsonZYJBvm4n6-1" target="8HCiJjrAsonZYJBvm4n6-4">
          <mxGeometry relative="1" as="geometry" />
        </mxCell>
        <mxCell id="8HCiJjrAsonZYJBvm4n6-6" value="Скасування запису" style="shape=ellipse;whiteSpace=wrap;html=1;fillColor=light-dark(#FFCDD2,#550818);" vertex="1" parent="1">
          <mxGeometry x="10" y="210" width="116" height="60" as="geometry" />
        </mxCell>
        <mxCell id="8HCiJjrAsonZYJBvm4n6-7" style="endArrow=none;fillColor=light-dark(#FFCDD2,#550818);" edge="1" parent="1" source="8HCiJjrAsonZYJBvm4n6-1" target="8HCiJjrAsonZYJBvm4n6-6">
          <mxGeometry relative="1" as="geometry" />
        </mxCell>
        <mxCell id="8HCiJjrAsonZYJBvm4n6-8" value="Авторизація в системі" style="shape=ellipse;whiteSpace=wrap;html=1;fillColor=light-dark(#FFCDD2,#550818);" vertex="1" parent="1">
          <mxGeometry x="180" y="210" width="124" height="60" as="geometry" />
        </mxCell>
        <mxCell id="8HCiJjrAsonZYJBvm4n6-9" style="endArrow=none;fillColor=light-dark(#FFCDD2,#550818);" edge="1" parent="1" source="8HCiJjrAsonZYJBvm4n6-1" target="8HCiJjrAsonZYJBvm4n6-8">
          <mxGeometry relative="1" as="geometry" />
        </mxCell>
        <mxCell id="8HCiJjrAsonZYJBvm4n6-10" value="Перегляд історії візитів" style="shape=ellipse;whiteSpace=wrap;html=1;fillColor=light-dark(#FFCDD2,#550818);" vertex="1" parent="1">
          <mxGeometry x="10" y="320" width="124" height="60" as="geometry" />
        </mxCell>
        <mxCell id="8HCiJjrAsonZYJBvm4n6-11" style="endArrow=none;fillColor=light-dark(#FFCDD2,#550818);" edge="1" parent="1" source="8HCiJjrAsonZYJBvm4n6-1" target="8HCiJjrAsonZYJBvm4n6-10">
          <mxGeometry relative="1" as="geometry" />
        </mxCell>
        <mxCell id="8HCiJjrAsonZYJBvm4n6-12" value="Додавання відгуку" style="shape=ellipse;whiteSpace=wrap;html=1;fillColor=light-dark(#FFCDD2,#550818);" vertex="1" parent="1">
          <mxGeometry x="160" y="320" width="124" height="60" as="geometry" />
        </mxCell>
        <mxCell id="8HCiJjrAsonZYJBvm4n6-13" style="endArrow=none;fillColor=light-dark(#FFCDD2,#550818);" edge="1" parent="1" source="8HCiJjrAsonZYJBvm4n6-1" target="8HCiJjrAsonZYJBvm4n6-12">
          <mxGeometry relative="1" as="geometry" />
        </mxCell>
        <mxCell id="8HCiJjrAsonZYJBvm4n6-14" value="Майстер" style="shape=umlActor;verticalLabelPosition=bottom;html=1;fillColor=light-dark(#C8E6C9,#060436);" vertex="1" parent="1">
          <mxGeometry x="400" y="100" width="30" height="60" as="geometry" />
        </mxCell>
        <mxCell id="8HCiJjrAsonZYJBvm4n6-15" value="Перегляд графіку роботи" style="shape=ellipse;whiteSpace=wrap;html=1;fillColor=light-dark(#C8E6C9,#060436);" vertex="1" parent="1">
          <mxGeometry x="335" y="200" width="160" height="60" as="geometry" />
        </mxCell>
        <mxCell id="8HCiJjrAsonZYJBvm4n6-16" style="endArrow=none;fillColor=light-dark(#C8E6C9,#060436);" edge="1" parent="1" source="8HCiJjrAsonZYJBvm4n6-14" target="8HCiJjrAsonZYJBvm4n6-15">
          <mxGeometry relative="1" as="geometry" />
        </mxCell>
        <mxCell id="8HCiJjrAsonZYJBvm4n6-17" value="Позначення візиту як виконаного" style="shape=ellipse;whiteSpace=wrap;html=1;fillColor=light-dark(#C8E6C9,#060436);" vertex="1" parent="1">
          <mxGeometry x="335" y="300" width="160" height="60" as="geometry" />
        </mxCell>
        <mxCell id="8HCiJjrAsonZYJBvm4n6-18" style="endArrow=none;fillColor=light-dark(#C8E6C9,#060436);" edge="1" parent="1" source="8HCiJjrAsonZYJBvm4n6-14" target="8HCiJjrAsonZYJBvm4n6-17">
          <mxGeometry relative="1" as="geometry" />
        </mxCell>
        <mxCell id="8HCiJjrAsonZYJBvm4n6-19" value="Адміністратор" style="shape=umlActor;verticalLabelPosition=bottom;html=1;fillColor=light-dark(#BBDEFB,#03500D);" vertex="1" parent="1">
          <mxGeometry x="631" y="90" width="30" height="60" as="geometry" />
        </mxCell>
        <mxCell id="8HCiJjrAsonZYJBvm4n6-20" value="Керування послугами" style="shape=ellipse;whiteSpace=wrap;html=1;fillColor=light-dark(#BBDEFB,#03500D);" vertex="1" parent="1">
          <mxGeometry x="510" y="190" width="127" height="60" as="geometry" />
        </mxCell>
        <mxCell id="8HCiJjrAsonZYJBvm4n6-21" style="endArrow=none;fillColor=light-dark(#BBDEFB,#03500D);" edge="1" parent="1" source="8HCiJjrAsonZYJBvm4n6-19" target="8HCiJjrAsonZYJBvm4n6-20">
          <mxGeometry relative="1" as="geometry" />
        </mxCell>
        <mxCell id="8HCiJjrAsonZYJBvm4n6-22" value="Управління працівниками" style="shape=ellipse;whiteSpace=wrap;html=1;fillColor=light-dark(#BBDEFB,#03500D);" vertex="1" parent="1">
          <mxGeometry x="680" y="190" width="123" height="60" as="geometry" />
        </mxCell>
        <mxCell id="8HCiJjrAsonZYJBvm4n6-23" style="endArrow=none;fillColor=light-dark(#BBDEFB,#03500D);" edge="1" parent="1" source="8HCiJjrAsonZYJBvm4n6-19" target="8HCiJjrAsonZYJBvm4n6-22">
          <mxGeometry relative="1" as="geometry" />
        </mxCell>
        <mxCell id="8HCiJjrAsonZYJBvm4n6-24" value="Створення запису вручну" style="shape=ellipse;whiteSpace=wrap;html=1;fillColor=light-dark(#BBDEFB,#03500D);" vertex="1" parent="1">
          <mxGeometry x="530" y="280" width="130" height="60" as="geometry" />
        </mxCell>
        <mxCell id="8HCiJjrAsonZYJBvm4n6-25" style="endArrow=none;fillColor=light-dark(#BBDEFB,#03500D);" edge="1" parent="1" source="8HCiJjrAsonZYJBvm4n6-19" target="8HCiJjrAsonZYJBvm4n6-24">
          <mxGeometry relative="1" as="geometry" />
        </mxCell>
        <mxCell id="8HCiJjrAsonZYJBvm4n6-26" value="Перегляд аналітики" style="shape=ellipse;whiteSpace=wrap;html=1;fillColor=light-dark(#BBDEFB,#03500D);" vertex="1" parent="1">
          <mxGeometry x="693" y="270" width="110" height="60" as="geometry" />
        </mxCell>
        <mxCell id="8HCiJjrAsonZYJBvm4n6-27" style="endArrow=none;fillColor=light-dark(#BBDEFB,#03500D);" edge="1" parent="1" source="8HCiJjrAsonZYJBvm4n6-19" target="8HCiJjrAsonZYJBvm4n6-26">
          <mxGeometry relative="1" as="geometry" />
        </mxCell>
        <mxCell id="8HCiJjrAsonZYJBvm4n6-28" value="Авторизація в системі" style="shape=ellipse;whiteSpace=wrap;html=1;fillColor=light-dark(#BBDEFB,#03500D);" vertex="1" parent="1">
          <mxGeometry x="610" y="340" width="160" height="60" as="geometry" />
        </mxCell>
        <mxCell id="8HCiJjrAsonZYJBvm4n6-29" style="endArrow=none;fillColor=light-dark(#BBDEFB,#03500D);" edge="1" parent="1" source="8HCiJjrAsonZYJBvm4n6-19" target="8HCiJjrAsonZYJBvm4n6-28">
          <mxGeometry relative="1" as="geometry" />
        </mxCell>
      </root>
    </mxGraphModel>
  </diagram>
  <diagram id="VAH-RZevPu2_A1D677__" name="Сторінка-2">
    <mxGraphModel dx="1042" dy="527" grid="1" gridSize="10" guides="1" tooltips="1" connect="1" arrows="1" fold="1" page="1" pageScale="1" pageWidth="827" pageHeight="1169" background="light-dark(#FFFFFF,#FFFFFF)" math="0" shadow="0">
      <root>
        <mxCell id="0" />
        <mxCell id="1" parent="0" />
        <mxCell id="_is8oH5N21vK9eH_tS4J-1" value="" style="text;whiteSpace=wrap;html=1;" vertex="1" parent="1">
          <mxGeometry x="250" y="110" width="386" height="300" as="geometry" />
        </mxCell>
      </root>
    </mxGraphModel>
  </diagram>
</mxfile>
